<svg id="레이어_1" data-name="레이어 1" xmlns="http://www.w3.org/2000/svg" xmlns:xlink="http://www.w3.org/1999/xlink" viewBox="0 0 24 24"><defs><style>.cls-1,.cls-3{fill:none;}.cls-2{clip-path:url(#clip-path);}.cls-3{stroke:#1a1a1a;stroke-linecap:round;stroke-linejoin:round;stroke-width:1.3px;}</style><clipPath id="clip-path"><rect class="cls-1" width="24" height="24"/></clipPath></defs><g class="cls-2"><path class="cls-3" d="M18.75,9H17.62V6.12C17.62,3,15.1,1.5,12,1.5S6.38,3,6.38,6.12V9H5.25A2.05,2.05,0,0,0,3,11v9.25A2.25,2.25,0,0,0,5.25,22.5h13.5A2.25,2.25,0,0,0,21,20.25V11a2.05,2.05,0,0,0-2.25-2ZM6.38,9H17.62M12,17.94a2.25,2.25,0,1,1,2.25-2.25A2.26,2.26,0,0,1,12,17.94Z"/></g></svg>
